<svg width="88" height="32" viewBox="0 0 88 32" fill="none" xmlns="http://www.w3.org/2000/svg">
<path d="M26.5476 12.1018C26.5069 18.8845 21.8095 25.9392 14.0592 31.428C6.56131 25.7991 2.43379 19.4284 2.25469 12.1018C2.10815 5.73116 7.69292 0.572021 14.4012 0.572021C21.1094 0.572021 26.5883 5.73116 26.5476 12.1018Z" fill="#0172F3"/>
<path d="M23.34 12.1101C23.34 14.2529 22.5666 16.3133 20.914 17.8297C19.1881 19.4697 17.4377 20.2609 14.4256 20.2939H7.59521C8.12437 19.9065 8.42559 19.4285 8.53143 18.8681C2.52332 13.6183 5.84488 4.29725 14.4337 4.26428C16.7783 4.26428 19.2613 4.86591 20.9221 6.38233C22.5666 7.907 23.3319 9.95911 23.34 12.1101Z" fill="white"/>
<path d="M36.2764 20.6154H30.2114V9.36584H36.2764V11.4509H32.3199V13.503H36.2764V15.5552H32.3199V18.5221H36.2764V20.6154Z" fill="#0172F3"/>
<path d="M44.3357 20.6151H42.2841V16.9724C42.2841 16.2142 42.2678 15.7362 42.2434 15.5301C42.1702 14.912 41.9829 14.4835 41.698 14.2445C41.4782 14.0796 41.2095 13.989 40.8839 13.989C40.0046 13.989 39.4348 14.5247 39.1905 15.5878C39.1335 15.8515 39.101 16.412 39.101 17.2773V20.6151H37.0413V12.2912H39.1091V13.1483C39.9476 12.4396 40.7536 12.0852 41.5433 12.0852C42.3655 12.0852 43.0575 12.3737 43.6193 12.9506C44.0996 13.4368 44.3357 14.162 44.3357 15.1263V20.6151Z" fill="#0172F3"/>
<path d="M53.4868 20.6152H51.4271V19.7416C50.67 20.4668 49.8233 20.8377 48.8952 20.8377C47.7555 20.8377 46.8111 20.3926 46.054 19.5108C45.3376 18.6619 44.9712 17.6482 44.9712 16.478C44.9712 15.2829 45.3132 14.261 45.997 13.4286C46.7297 12.5385 47.6659 12.0935 48.8301 12.0935C49.8233 12.0935 50.6863 12.4726 51.419 13.2226V9.09363H53.4786V20.6152H53.4868ZM51.5248 16.445C51.5248 15.7445 51.3213 15.1676 50.9061 14.706C50.4909 14.2445 49.9454 14.0138 49.2616 14.0138C48.594 14.0138 48.0486 14.2528 47.6334 14.7308C47.2345 15.1923 47.0391 15.7609 47.0391 16.445C47.0391 17.129 47.2426 17.6977 47.6415 18.1674C48.0648 18.6619 48.6021 18.9092 49.2697 18.9092C49.9536 18.9092 50.5072 18.6702 50.9305 18.1839C51.3213 17.7224 51.5248 17.1455 51.5248 16.445Z" fill="#0172F3"/>
<path d="M62.6458 13.9809L60.928 14.9369C60.3581 14.3353 59.6661 14.0304 58.8683 14.0304C58.1193 14.0304 57.5087 14.2529 57.0284 14.6979C56.5318 15.1594 56.2876 15.7611 56.2876 16.511C56.2876 17.2363 56.5237 17.8214 56.9959 18.2665C57.4518 18.695 58.0461 18.9175 58.7788 18.9175C59.6987 18.9175 60.4151 18.6044 60.928 17.9698L62.5562 19.0906C61.677 20.2444 60.4314 20.8296 58.8195 20.8296C57.5087 20.8296 56.4178 20.4422 55.5549 19.6593C54.6512 18.8516 54.1953 17.7885 54.1953 16.4863C54.1953 15.6704 54.3989 14.9287 54.7978 14.2529C55.1967 13.5771 55.7503 13.0496 56.4667 12.6623C57.175 12.2749 57.9728 12.0771 58.852 12.0771C60.5209 12.0854 61.7828 12.7117 62.6458 13.9809Z" fill="#0172F3"/>
<path d="M71.657 20.6152H69.5973V19.7416C68.8402 20.4668 67.9935 20.8377 67.0655 20.8377C65.9257 20.8377 64.9813 20.3926 64.2242 19.5108C63.5078 18.6619 63.1415 17.6482 63.1415 16.478C63.1415 15.2829 63.4834 14.261 64.1672 13.4286C64.8999 12.5385 65.8362 12.0935 67.0003 12.0935C67.9935 12.0935 68.8565 12.4726 69.5892 13.2226V12.3078H71.6489V20.6152H71.657ZM69.695 16.445C69.695 15.7445 69.4915 15.1676 69.0763 14.706C68.6611 14.2445 68.1157 14.0138 67.4318 14.0138C66.7642 14.0138 66.2188 14.2528 65.8036 14.7308C65.4047 15.1923 65.2093 15.7609 65.2093 16.445C65.2093 17.129 65.4128 17.6977 65.8117 18.1674C66.2351 18.6619 66.7724 18.9092 67.4399 18.9092C68.1238 18.9092 68.6774 18.6702 69.1007 18.1839C69.4915 17.7224 69.695 17.1455 69.695 16.445Z" fill="#0172F3"/>
<path d="M77.9509 18.2335C77.9509 19.0412 77.6497 19.6922 77.0554 20.1702C76.51 20.607 75.818 20.8296 74.9957 20.8296C73.799 20.8296 72.8383 20.3515 72.1219 19.4038L73.3919 18.0027C73.9292 18.6456 74.4991 18.967 75.1015 18.967C75.3214 18.967 75.5249 18.9175 75.6958 18.8104C75.8994 18.6868 76.0052 18.5137 76.0052 18.3077C76.0052 17.978 75.704 17.6648 75.1097 17.3681L74.4177 17.0138C73.0907 16.338 72.4231 15.4891 72.4231 14.4672C72.4231 13.7502 72.6999 13.165 73.2454 12.7117C73.7501 12.2914 74.3689 12.0771 75.0934 12.0771C76.225 12.0771 77.1205 12.5387 77.7962 13.4535L76.5181 14.7474C75.9971 14.2199 75.533 13.9562 75.1097 13.9562C74.6212 13.9562 74.3689 14.1293 74.3689 14.4754C74.3689 14.6897 74.6131 14.9204 75.1097 15.1759L75.8668 15.555C76.5425 15.9012 77.0391 16.2391 77.3403 16.577C77.7474 17.0385 77.9509 17.5907 77.9509 18.2335Z" fill="#0172F3"/>
<path d="M85.8961 20.6153H83.8527V16.9726C83.8527 16.2473 83.8364 15.7611 83.8038 15.5303C83.7306 14.904 83.5433 14.4754 83.2584 14.2529C83.0386 14.0881 82.7699 13.9974 82.4443 13.9974C81.565 13.9974 81.0033 14.5166 80.7509 15.5633C80.6939 15.8105 80.6614 16.3874 80.6614 17.2775V20.6153H78.6098V9.07727H80.6614V13.1321C81.4673 12.4315 82.2814 12.0772 83.1118 12.0772C83.9911 12.0772 84.6831 12.3656 85.1797 12.9425C85.6518 13.4864 85.8879 14.2117 85.8879 15.1182V20.6153H85.8961Z" fill="#0172F3"/>
<path d="M33.1753 27.1758C33.1753 27.6044 33.0288 27.9423 32.7276 28.206C32.4426 28.4532 32.0763 28.5769 31.6448 28.5769C30.9365 28.5769 30.3992 28.2225 30.0329 27.5055L30.8307 27.0275C31.0668 27.4643 31.3436 27.6868 31.6611 27.6868C31.8076 27.6868 31.9379 27.6456 32.0519 27.5632C32.1821 27.4725 32.2391 27.3571 32.2391 27.217C32.2391 27.0687 32.1577 26.9121 31.9867 26.7308C31.9216 26.6649 31.7751 26.5412 31.5553 26.3599C31.1482 26.0303 30.8633 25.783 30.7167 25.6182C30.4155 25.2803 30.2608 24.9506 30.2608 24.6375C30.2608 24.2748 30.3992 23.9781 30.676 23.7309C30.9447 23.5001 31.2622 23.3848 31.6285 23.3848C32.1333 23.3848 32.6136 23.6485 33.0776 24.1842L32.3775 24.8023C32.1333 24.4562 31.8809 24.2913 31.6285 24.2913C31.5227 24.2913 31.4332 24.316 31.3436 24.3737C31.2459 24.4397 31.2052 24.5138 31.2052 24.6127C31.2052 24.6952 31.2296 24.7776 31.2866 24.8517C31.368 24.9589 31.596 25.1649 31.9786 25.4863C32.345 25.7913 32.5648 25.9808 32.638 26.055C32.9962 26.4011 33.1753 26.7802 33.1753 27.1758Z" fill="#4A4745"/>
<path d="M38.6787 24.3822L38.0111 25.0085C37.5552 24.5305 37.0505 24.2998 36.4806 24.2998C36.0003 24.2998 35.6014 24.4646 35.2676 24.786C34.942 25.1074 34.7791 25.503 34.7791 25.981C34.7791 26.6651 35.0559 27.1596 35.6095 27.4645C35.8782 27.6128 36.1713 27.687 36.4888 27.687C36.7981 27.687 37.0749 27.6211 37.3191 27.4975C37.5308 27.3903 37.7506 27.2173 37.9949 26.9782L38.638 27.6458C38.2961 27.9755 37.9623 28.2145 37.6529 28.3546C37.311 28.5112 36.9121 28.5936 36.4643 28.5936C35.6828 28.5936 35.0478 28.3546 34.5512 27.8683C34.0546 27.3821 33.8103 26.7557 33.8103 25.9893C33.8103 24.9838 34.25 24.2339 35.1211 23.7476C35.5444 23.5168 35.9922 23.4015 36.4806 23.4015C37.3761 23.385 38.1088 23.7146 38.6787 24.3822Z" fill="#4A4745"/>
<path d="M43.9299 28.4535H42.9449L42.5541 27.4316H40.5107L40.1036 28.4535H39.1104L41.0398 23.5087H42.0086L43.9299 28.4535ZM42.1959 26.5168L41.5283 24.8108L40.8607 26.5168H42.1959Z" fill="#4A4745"/>
<path d="M48.676 28.4531H47.7642L45.6231 25.206V28.4449H44.6706V23.5H45.5824L47.7317 26.7554V23.5H48.6842V28.4531H48.676Z" fill="#4A4745"/>
<path d="M50.6628 27.9669C50.6628 28.0905 50.6302 28.1977 50.557 28.2801C50.4674 28.3872 50.3453 28.4449 50.1744 28.4449C50.0115 28.4449 49.8813 28.3872 49.7999 28.2801C49.7266 28.1894 49.694 28.0905 49.694 27.9669C49.694 27.8433 49.7266 27.7444 49.7999 27.6537C49.8894 27.5466 50.0115 27.4889 50.1744 27.4889C50.3453 27.4889 50.4674 27.5383 50.557 27.6455C50.6302 27.7361 50.6628 27.8433 50.6628 27.9669Z" fill="#4A4745"/>
<path d="M54.651 24.9423C54.651 25.2719 54.5614 25.5604 54.3823 25.7911C54.2032 26.0219 53.959 26.1867 53.6333 26.2774C53.4542 26.3268 53.1204 26.3515 52.632 26.3515V28.4449H51.6795V23.5H52.689C53.1286 23.5 53.4542 23.533 53.6659 23.5907C54.0078 23.6813 54.2683 23.8626 54.4393 24.1346C54.5858 24.3653 54.651 24.6291 54.651 24.9423ZM53.7229 24.9423C53.7229 24.7527 53.6496 24.6126 53.5031 24.5219C53.3891 24.456 53.1937 24.423 52.9006 24.423H52.632V25.4367H52.9332C53.3077 25.4367 53.5519 25.3626 53.6496 25.2142C53.6985 25.1483 53.7229 25.0494 53.7229 24.9423Z" fill="#4A4745"/>
<path d="M60.0002 28.4535H59.0152L58.6244 27.4316H56.581L56.1739 28.4535H55.1889L57.1183 23.5087H58.0871L60.0002 28.4535ZM58.2662 26.5168L57.5986 24.8108L56.9311 26.5168H58.2662Z" fill="#4A4745"/>
<path d="M64.2659 23.5087L62.8005 26.3108V28.4535H61.848V26.3108L60.3826 23.5087H61.4003L62.3365 25.2806L63.2646 23.5087H64.2659Z" fill="#4A4745"/>
<path d="M65.9027 27.9669C65.9027 28.0905 65.8702 28.1977 65.7969 28.2801C65.7073 28.3872 65.5852 28.4449 65.4143 28.4449C65.2514 28.4449 65.1212 28.3872 65.0398 28.2801C64.9665 28.1894 64.9339 28.0905 64.9339 27.9669C64.9339 27.8433 64.9665 27.7444 65.0398 27.6537C65.1293 27.5466 65.2514 27.4889 65.4143 27.4889C65.5852 27.4889 65.7073 27.5383 65.7969 27.6455C65.8702 27.7361 65.9027 27.8433 65.9027 27.9669Z" fill="#4A4745"/>
<path d="M70.8929 26.047C70.8929 26.83 70.6487 27.4398 70.1683 27.8931C69.8915 28.1486 69.5659 28.3134 69.1914 28.3876C68.9716 28.4288 68.5971 28.4535 68.068 28.4535H66.9201V23.5087H68.0517C68.6785 23.5087 69.1589 23.5746 69.4926 23.6982C69.9323 23.863 70.2823 24.1845 70.5428 24.646C70.7789 25.0416 70.8929 25.5113 70.8929 26.047ZM69.9323 26.0223C69.9323 24.9509 69.3542 24.407 68.1982 24.407H67.8726V27.5305H68.3122C68.6785 27.5305 68.9553 27.4975 69.1426 27.4316C69.3949 27.3409 69.5985 27.1596 69.745 26.8877C69.8671 26.6569 69.9323 26.3684 69.9323 26.0223Z" fill="#4A4745"/>
<path d="M76.7466 25.9973C76.7466 26.7143 76.5023 27.3242 76.0057 27.8269C75.5091 28.3296 74.8986 28.5769 74.1659 28.5769C73.4332 28.5769 72.8063 28.3296 72.3097 27.8269C71.8049 27.3242 71.5526 26.7143 71.5526 25.9808C71.5526 25.5111 71.6666 25.0743 71.8945 24.6787C72.1224 24.2831 72.44 23.9699 72.8551 23.7309C73.2622 23.5001 73.6937 23.3848 74.1577 23.3848C74.8823 23.3848 75.501 23.6402 75.9976 24.1512C76.5023 24.6622 76.7466 25.2721 76.7466 25.9973ZM75.7941 25.9891C75.7941 25.5193 75.6394 25.1237 75.33 24.8023C75.0125 24.4726 74.6218 24.3078 74.1496 24.3078C73.6693 24.3078 73.2703 24.4726 72.9691 24.8023C72.6679 25.1237 72.5132 25.5193 72.5132 25.9973C72.5132 26.5412 72.7086 26.978 73.1075 27.2994C73.4169 27.5467 73.7669 27.6703 74.1659 27.6703C74.6299 27.6703 75.0207 27.5055 75.3382 27.1758C75.6394 26.8462 75.7941 26.4506 75.7941 25.9891Z" fill="#4A4745"/>
<path d="M81.6557 28.4535H80.7439L78.6028 25.2146V28.4535H77.6503V23.5087H78.5621L80.7113 26.764V23.5087H81.6638V28.4535H81.6557Z" fill="#4A4745"/>
<path d="M85.5303 28.4535H82.8031V23.5087H85.5303V24.4235H83.7474V25.3218H85.5303V26.2201H83.7474V27.5222H85.5303V28.4535Z" fill="#4A4745"/>
<path d="M10.5663 8.03058L9.99645 15.522C9.96388 15.9671 10.3058 16.3462 10.7454 16.3462H16.2244C16.3139 16.3462 16.3628 16.4451 16.3058 16.5193C16.2325 16.6264 16.1592 16.7418 16.1999 16.8077C16.2651 16.9148 16.5989 17.261 16.7291 17.228C16.8594 17.2033 18.1212 15.9259 18.1945 15.7858C18.2678 15.6457 18.2596 15.1924 18.1945 15.0688C18.1294 14.9451 16.9082 13.6512 16.8024 13.5935C16.6965 13.5359 16.1755 13.9891 16.1837 14.1045C16.1918 14.1952 16.2732 14.3188 16.3546 14.4424C16.3953 14.5083 16.3628 14.6155 16.2813 14.6155H11.9503C11.877 14.6155 11.8119 14.5496 11.82 14.4754L11.9584 12.8271C11.9666 12.7776 12.0073 12.7364 12.0561 12.7364H16.379C16.4279 12.7364 16.4849 12.72 16.5337 12.6952C16.721 12.6046 17.185 12.3491 17.2094 11.8876C17.2339 11.4425 16.9326 11.1541 16.7535 11.0305C16.6803 10.981 16.5907 10.948 16.5012 10.948H13.8065C13.7006 10.948 13.6436 11.1129 13.7006 11.187C13.7495 11.2447 13.7495 11.3189 13.7006 11.3766C13.5541 11.5332 13.261 11.8299 13.1633 11.8299C13.0331 11.8299 11.6735 10.4124 11.6002 10.3052C11.5188 10.1816 11.4944 9.89314 11.5758 9.67887C11.6409 9.51404 12.9354 8.14596 13.1226 8.14596C13.3017 8.14596 13.7169 8.60748 13.7332 8.70638C13.7332 8.7311 13.7251 8.77231 13.7006 8.80527C13.6436 8.90417 13.7088 9.02779 13.8227 9.02779H18.1864H18.1945C18.2515 9.01131 18.8051 8.83 18.8051 8.20365C18.8051 7.58554 18.3899 7.36302 18.3248 7.3383C18.3166 7.3383 18.3166 7.3383 18.3085 7.3383H11.3072C10.9164 7.33006 10.5907 7.63499 10.5663 8.03058Z" fill="#0172F3"/>
</svg>
